<svg xmlns="http://www.w3.org/2000/svg"  viewBox="0 0 72 72" width="64px" height="64px"><path d="M26.336,33.719h-3.86c-0.996,0-1.804-0.808-1.804-1.804v-6.643c0-1.091,0.683-2.057,1.712-2.42	c2.502-0.885,6.943-3.513,7.676-11.105c0.108-1.121,1.025-1.991,2.151-1.991h7.19c0.981,0,1.777,0.795,1.777,1.777v10.465h7.277	c0.996,0,1.804,0.808,1.804,1.804v8.114c0,0.996-0.808,1.804-1.804,1.804h-7.277v11.725c0,2.664,1.286,3.685,2.512,3.685	c0.965,0,3.536-0.694,3.867-0.775c0.87-0.214,1.749,0.131,2.079,1.075c0.33,0.944,2.301,6.562,2.301,6.562	c0.355,1.012-0.009,2.127-0.885,2.745c-1.659,1.169-4.78,2.77-9.427,2.77c-7.22,0-15.288-3.208-15.288-15.181	C26.336,43.949,26.336,33.719,26.336,33.719z"/></svg>